<svg xmlns="http://www.w3.org/2000/svg" xml:space="preserve" width="325.0953" height="221.1145" style="shape-rendering:geometricPrecision;text-rendering:geometricPrecision;image-rendering:optimizeQuality;fill-rule:evenodd;clip-rule:evenodd" viewBox="0 0 61080.39 41544"><path d="m32204.92 35804.14 1306.04-4775.03H21062.57L30502.55 25089v-6975.88c-3992.83-52.41-10895.22 620.78-10763.99-2712.71 83.15-2111.17 1986.12-4474.22 7956.77-4116.04 3140.63 188.39 7126.07 2305.18 9681.71 4836.52l3175.63-11496.62C37059.33 1622.26 30219.01 241.01 21160.28 204.66c-718.85-3.91-1458.08 53.97-2212.65 178.17C11943.48 1535.77 6265.55 7965.79 6265.55 14744.69c0 5198.82 3339.53 9093.02 8054.69 10105.65L2544.19 32308.46-.01 41542.51l20303.96-3.12c814.15 21.73 1656.34-33.23 2518.78-175.19 3718.16-612.05 7062.52-2711.22 9382.18-5560.06z" style="fill:#278f7f"/><path d="m9565.46 5942.95-1306.04 4775.03h12448.39l-9439.98 5940.11v6975.88c3992.83 52.41 10895.22-620.78 10763.99 2712.71-83.15 2111.17-1986.12 4474.22-7956.77 4116.04-3140.63-188.39-7126.07-2305.18-9681.71-4836.52L1217.71 37122.82c3493.34 3002.01 10333.66 4383.26 19392.39 4419.61 718.85 3.91 1458.08-53.97 2212.65-178.17 7004.15-1152.94 12682.08-7582.96 12682.08-14361.86 0-5198.82-3339.53-9093.02-8054.69-10105.65l11776.05-7458.12 2544.2-9234.05-20303.96 3.12c-814.15-21.73-1656.34 33.23-2518.78 175.19-3718.16 612.05-7062.52 2711.22-9382.18 5560.06z" style="fill:#64cabc;fill-opacity:.760784"/><path d="m40814 29016.36 4997.08-18139.18h-4557.94L54163.17-.01l6917.23 10877.19h-4557.94l-4997.08 18139.39c-1163.59-1147.97-2833.29-1831.74-4851.22-1831.74-2017.79 0-4064.13 683.7-5860.15 1831.53z" style="fill:#64cabc;fill-rule:nonzero;fill-opacity:.760784"/><circle r="5355.76" style="fill:#278f7f" transform="matrix(1 0 -.3 1 44264.7 35931.1)"/></svg>